<?xml version="1.0" encoding="UTF-8" standalone="no"?>
<svg
   xmlns:dc="http://purl.org/dc/elements/1.1/"
   xmlns:cc="http://creativecommons.org/ns#"
   xmlns:rdf="http://www.w3.org/1999/02/22-rdf-syntax-ns#"
   xmlns:svg="http://www.w3.org/2000/svg"
   xmlns="http://www.w3.org/2000/svg"
   xmlns:sodipodi="http://sodipodi.sourceforge.net/DTD/sodipodi-0.dtd"
   xmlns:inkscape="http://www.inkscape.org/namespaces/inkscape"
   viewBox="0 0 64 64"
   version="1.1"
   id="svg585"
   sodipodi:docname="ext-logo-green-A-logo.svg"
   inkscape:version="0.92.3 (2405546, 2018-03-11)">
  <metadata
     id="metadata591">
    <rdf:RDF>
      <cc:Work
         rdf:about="">
        <dc:format>image/svg+xml</dc:format>
        <dc:type
           rdf:resource="http://purl.org/dc/dcmitype/StillImage" />
        <dc:title></dc:title>
      </cc:Work>
    </rdf:RDF>
  </metadata>
  <defs
     id="defs589" />
  <sodipodi:namedview
     pagecolor="#ffffff"
     bordercolor="#666666"
     borderopacity="1"
     objecttolerance="10"
     gridtolerance="10"
     guidetolerance="10"
     inkscape:pageopacity="0"
     inkscape:pageshadow="2"
     inkscape:window-width="1920"
     inkscape:window-height="1026"
     id="namedview587"
     showgrid="false"
     inkscape:zoom="9.2255338"
     inkscape:cx="1.9254503"
     inkscape:cy="34.83938"
     inkscape:window-x="0"
     inkscape:window-y="0"
     inkscape:window-maximized="1"
     inkscape:current-layer="svg585" />
  <path
     fill="#EF8534"
     d="M0 0h64v64H0z"
     id="path557"
     style="fill:#5274bb;fill-opacity:1" />
  <g
     inkscape:groupmode="layer"
     id="layer2"
     inkscape:label="Logo">
    <path
       id="path5237"
       d="M 51.124336,44.840395 H 48.991217 L 37.080926,11.826714 A 2.9158407,2.9158407 0 0 0 34.319981,9.8503097 H 30.022769 A 2.9158407,2.9158407 0 0 0 27.261823,11.826714 L 15.351532,44.840395 h -2.133118 a 1.4579203,1.4579203 0 0 0 -1.457927,1.457927 v 2.915836 a 1.4579203,1.4579203 0 0 0 1.457927,1.457927 h 11.663362 a 1.4579203,1.4579203 0 0 0 1.457909,-1.457927 v -2.915836 a 1.4579203,1.4579203 0 0 0 -1.457909,-1.457927 h -1.784133 l 2.1231,-5.831672 h 13.901263 l 2.123101,5.831672 h -1.784133 a 1.4579203,1.4579203 0 0 0 -1.457927,1.457927 v 2.915836 a 1.4579203,1.4579203 0 0 0 1.457927,1.457927 h 11.663362 a 1.4579203,1.4579203 0 0 0 1.457926,-1.457927 v -2.915836 a 1.4579203,1.4579203 0 0 0 -1.457926,-1.457927 z m -23.24927,-13.121271 4.296309,-11.799136 4.296309,11.799136 z"
       inkscape:connector-curvature="0"
       style="fill:#ffffff;stroke-width:0.09112002" />
  </g>
</svg>
